SplineFontDB: 3.0
FontName: BukanMorseToo
FullName: BukanMorse Too
FamilyName: BukanMorse Too
Weight: Regular
Copyright: Copyright (c) 2015 Aydi Rainkarnichi, http://rainkarnichi.my.id @aydiriku. BukanMorse Too tapi Morse, based on International Morse Code.
Version: 001
ItalicAngle: 0
UnderlinePosition: 0
UnderlineWidth: 0
Ascent: 800
Descent: 200
InvalidEm: 0
LayerCount: 2
Layer: 0 0 "Back" 1
Layer: 1 0 "Fore" 0
HasVMetrics: 1
XUID: [1021 719 330763385 19224]
FSType: 0
OS2Version: 0
OS2_WeightWidthSlopeOnly: 0
OS2_UseTypoMetrics: 0
CreationTime: 1431685442
ModificationTime: 1432528330
PfmFamily: 81
TTFWeight: 400
TTFWidth: 5
LineGap: 92
VLineGap: 92
OS2TypoAscent: 0
OS2TypoAOffset: 1
OS2TypoDescent: 0
OS2TypoDOffset: 1
OS2TypoLinegap: 92
OS2WinAscent: 0
OS2WinAOffset: 1
OS2WinDescent: 0
OS2WinDOffset: 1
HheadAscent: 0
HheadAOffset: 1
HheadDescent: 0
HheadDOffset: 1
OS2Vendor: 'PfEd'
MarkAttachClasses: 1
DEI: 91125

StartChar: a
Encoding: 97 97 1
Width: 800
VWidth: 0
Flags: HW
LayerCount: 2
Back
Fore
SplineSet
200 400 m 1
 200 200 l 1
 333.333007812 200 466.666992188 200 600 200 c 1
 600 400 l 1
 466.666992188 400 333.333007812 400 200 400 c 1
0 200 m 1
 0 0 l 1
 200 0 l 1
 200 200 l 1
 0 200 l 1
EndSplineSet
EndChar

StartChar: b
Encoding: 98 98 2
Width: 1200
VWidth: 0
Flags: HW
LayerCount: 2
Back
Fore
SplineSet
0 400 m 1
 0 200 l 1
 133.33333 200 266.66667 200 400 200 c 1
 400 400 l 1
 266.66667 400 133.33333 400 0 400 c 1
400 200 m 1
 400 0 l 1
 600 0 l 1
 600 200 l 1
 400 200 l 1
600 200 m 1
 600 0 l 1
 800 0 l 1
 800 200 l 1
 600 200 l 1
800 200 m 1
 800 0 l 1
 1000 0 l 1
 1000 200 l 1
 800 200 l 1
EndSplineSet
EndChar

StartChar: c
Encoding: 99 99 3
Width: 1400
VWidth: 0
Flags: HW
LayerCount: 2
Back
Fore
SplineSet
1000 200 m 1
 1000 0 l 1
 1200 0 l 1
 1200 200 l 1
 1000 200 l 1
600 400 m 1
 600 200 l 1
 733.333007812 200 866.666992188 200 1000 200 c 1
 1000 400 l 1
 866.666992188 400 733.333007812 400 600 400 c 1
400 200 m 1
 400 0 l 1
 600 0 l 1
 600 200 l 1
 400 200 l 1
0 400 m 1
 0 200 l 1
 133.33333 200 266.66667 200 400 200 c 1
 400 400 l 1
 266.66667 400 133.33333 400 0 400 c 1
EndSplineSet
EndChar

StartChar: d
Encoding: 100 100 4
Width: 1000
VWidth: 0
Flags: HW
LayerCount: 2
Back
Fore
SplineSet
0 400 m 1
 0 200 l 1
 133.33333 200 266.66667 200 400 200 c 1
 400 400 l 1
 266.66667 400 133.33333 400 0 400 c 1
400 200 m 1
 400 0 l 1
 600 0 l 1
 600 200 l 1
 400 200 l 1
600 200 m 1
 600 0 l 1
 800 0 l 1
 800 200 l 1
 600 200 l 1
EndSplineSet
EndChar

StartChar: e
Encoding: 101 101 5
Width: 400
VWidth: 0
Flags: HW
LayerCount: 2
Back
Fore
SplineSet
0 200 m 1
 0 0 l 1
 200 0 l 1
 200 200 l 1
 0 200 l 1
EndSplineSet
EndChar

StartChar: f
Encoding: 102 102 6
Width: 1200
VWidth: 0
Flags: HW
LayerCount: 2
Back
Fore
SplineSet
0 200 m 1
 0 0 l 1
 200 0 l 1
 200 200 l 1
 0 200 l 1
400 400 m 1
 400 200 l 1
 533.333007812 200 666.666992188 200 800 200 c 1
 800 400 l 1
 666.666992188 400 533.333007812 400 400 400 c 1
800 200 m 1
 800 0 l 1
 1000 0 l 1
 1000 200 l 1
 800 200 l 1
200 200 m 1
 200 0 l 1
 400 0 l 1
 400 200 l 1
 200 200 l 1
EndSplineSet
EndChar

StartChar: h
Encoding: 104 104 7
Width: 1000
VWidth: 0
Flags: HW
LayerCount: 2
Back
Fore
SplineSet
0 200 m 1
 0 0 l 1
 200 0 l 1
 200 200 l 1
 0 200 l 1
200 200 m 1
 200 0 l 1
 400 0 l 1
 400 200 l 1
 200 200 l 1
400 200 m 1
 400 0 l 1
 600 0 l 1
 600 200 l 1
 400 200 l 1
600 200 m 1
 600 0 l 1
 800 0 l 1
 800 200 l 1
 600 200 l 1
EndSplineSet
EndChar

StartChar: i
Encoding: 105 105 8
Width: 600
VWidth: 0
Flags: HW
LayerCount: 2
Back
Fore
SplineSet
200 200 m 1
 200 0 l 1
 400 0 l 1
 400 200 l 1
 200 200 l 1
0 200 m 1
 0 0 l 1
 200 0 l 1
 200 200 l 1
 0 200 l 1
EndSplineSet
EndChar

StartChar: j
Encoding: 106 106 9
Width: 1600
VWidth: 0
Flags: HW
LayerCount: 2
Back
Fore
SplineSet
600 400 m 1
 600 200 l 1
 733.333007812 200 866.666992188 200 1000 200 c 1
 1000 400 l 1
 866.666992188 400 733.333007812 400 600 400 c 1
1000 400 m 1
 1000 200 l 1
 1133.33300781 200 1266.66699219 200 1400 200 c 1
 1400 400 l 1
 1266.66699219 400 1133.33300781 400 1000 400 c 1
200 400 m 1
 200 200 l 1
 333.333007812 200 466.666992188 200 600 200 c 1
 600 400 l 1
 466.666992188 400 333.333007812 400 200 400 c 1
0 200 m 1
 0 0 l 1
 200 0 l 1
 200 200 l 1
 0 200 l 1
EndSplineSet
EndChar

StartChar: k
Encoding: 107 107 10
Width: 1200
VWidth: 0
Flags: HW
LayerCount: 2
Back
Fore
SplineSet
400 200 m 1
 400 0 l 1
 600 0 l 1
 600 200 l 1
 400 200 l 1
600 400 m 1
 600 200 l 1
 733.333007812 200 866.666992188 200 1000 200 c 1
 1000 400 l 1
 866.666992188 400 733.333007812 400 600 400 c 1
0 400 m 1
 0 200 l 1
 133.3333 200 266.6667 200 400 200 c 1
 400 400 l 1
 266.6667 400 133.3333 400 0 400 c 1
EndSplineSet
EndChar

StartChar: l
Encoding: 108 108 11
Width: 1200
VWidth: 0
Flags: HW
LayerCount: 2
Back
Fore
SplineSet
0 200 m 1
 0 0 l 1
 200 0 l 1
 200 200 l 1
 0 200 l 1
200 400 m 1
 200 200 l 1
 333.333007812 200 466.666992188 200 600 200 c 1
 600 400 l 1
 466.666992188 400 333.333007812 400 200 400 c 1
800 200 m 1
 800 0 l 1
 1000 0 l 1
 1000 200 l 1
 800 200 l 1
600 200 m 1
 600 0 l 1
 800 0 l 1
 800 200 l 1
 600 200 l 1
EndSplineSet
EndChar

StartChar: m
Encoding: 109 109 12
Width: 1000
VWidth: 0
Flags: HW
LayerCount: 2
Back
Fore
SplineSet
0 400 m 1
 0 200 l 1
 133.3333 200 266.6667 200 400 200 c 1
 400 400 l 1
 266.6667 400 133.3333 400 0 400 c 1
400 400 m 1
 400 200 l 1
 533.333007812 200 666.666992188 200 800 200 c 1
 800 400 l 1
 666.666992188 400 533.333007812 400 400 400 c 1
EndSplineSet
EndChar

StartChar: n
Encoding: 110 110 13
Width: 800
VWidth: 0
Flags: HW
LayerCount: 2
Back
Fore
SplineSet
400 200 m 1
 400 0 l 1
 600 0 l 1
 600 200 l 1
 400 200 l 1
0 400 m 1
 0 200 l 1
 133.3333 200 266.6667 200 400 200 c 1
 400 400 l 1
 266.6667 400 133.3333 400 0 400 c 1
EndSplineSet
EndChar

StartChar: o
Encoding: 111 111 14
Width: 1400
VWidth: 0
Flags: HW
LayerCount: 2
Back
Fore
SplineSet
0 400 m 1
 0 200 l 1
 133.3333 200 266.6667 200 400 200 c 1
 400 400 l 1
 266.6667 400 133.3333 400 0 400 c 1
800 400 m 1
 800 200 l 1
 933.333007812 200 1066.66699219 200 1200 200 c 1
 1200 400 l 1
 1066.66699219 400 933.333007812 400 800 400 c 1
400 400 m 1
 400 200 l 1
 533.333007812 200 666.666992188 200 800 200 c 1
 800 400 l 1
 666.666992188 400 533.333007812 400 400 400 c 1
EndSplineSet
EndChar

StartChar: p
Encoding: 112 112 15
Width: 1400
VWidth: 0
Flags: HW
LayerCount: 2
Back
Fore
SplineSet
0 200 m 1
 0 0 l 1
 200 0 l 1
 200 200 l 1
 0 200 l 1
1000 200 m 1
 1000 0 l 1
 1200 0 l 1
 1200 200 l 1
 1000 200 l 1
600 400 m 1
 600 200 l 1
 733.333007812 200 866.666992188 200 1000 200 c 1
 1000 400 l 1
 866.666992188 400 733.333007812 400 600 400 c 1
200 400 m 1
 200 200 l 1
 333.333007812 200 466.666992188 200 600 200 c 1
 600 400 l 1
 466.666992188 400 333.333007812 400 200 400 c 1
EndSplineSet
EndChar

StartChar: q
Encoding: 113 113 16
Width: 1600
VWidth: 0
Flags: HW
LayerCount: 2
Back
Fore
SplineSet
0 400 m 1
 0 200 l 1
 133.3333 200 266.6667 200 400 200 c 1
 400 400 l 1
 266.6667 400 133.3333 400 0 400 c 1
400 400 m 1
 400 200 l 1
 533.333007812 200 666.666992188 200 800 200 c 1
 800 400 l 1
 666.666992188 400 533.333007812 400 400 400 c 1
800 200 m 1
 800 0 l 1
 1000 0 l 1
 1000 200 l 1
 800 200 l 1
1000 400 m 1
 1000 200 l 1
 1133.33300781 200 1266.66699219 200 1400 200 c 1
 1400 400 l 1
 1266.66699219 400 1133.33300781 400 1000 400 c 1
EndSplineSet
EndChar

StartChar: r
Encoding: 114 114 17
Width: 1000
VWidth: 0
Flags: HW
LayerCount: 2
Back
Fore
SplineSet
200 400 m 1
 200 200 l 1
 333.333007812 200 466.666992188 200 600 200 c 1
 600 400 l 1
 466.666992188 400 333.333007812 400 200 400 c 1
0 200 m 1
 0 0 l 1
 200 0 l 1
 200 200 l 1
 0 200 l 1
600 200 m 1
 600 0 l 1
 800 0 l 1
 800 200 l 1
 600 200 l 1
EndSplineSet
EndChar

StartChar: s
Encoding: 115 115 18
Width: 800
VWidth: 0
Flags: HW
LayerCount: 2
Back
Fore
SplineSet
200 200 m 1
 200 0 l 1
 400 0 l 1
 400 200 l 1
 200 200 l 1
400 200 m 1
 400 0 l 1
 600 0 l 1
 600 200 l 1
 400 200 l 1
0 200 m 1
 0 0 l 1
 200 0 l 1
 200 200 l 1
 0 200 l 1
EndSplineSet
EndChar

StartChar: t
Encoding: 116 116 19
Width: 600
VWidth: 0
Flags: HW
LayerCount: 2
Back
Fore
SplineSet
0 400 m 1
 0 200 l 1
 133.33333 200 266.66667 200 400 200 c 1
 400 400 l 1
 266.66667 400 133.33333 400 0 400 c 1
EndSplineSet
EndChar

StartChar: u
Encoding: 117 117 20
Width: 1000
VWidth: 0
Flags: HW
LayerCount: 2
Back
Fore
SplineSet
400 400 m 1
 400 200 l 1
 533.333007812 200 666.666992188 200 800 200 c 1
 800 400 l 1
 666.666992188 400 533.333007812 400 400 400 c 1
0 200 m 1
 0 0 l 1
 200 0 l 1
 200 200 l 1
 0 200 l 1
200 200 m 1
 200 0 l 1
 400 0 l 1
 400 200 l 1
 200 200 l 1
EndSplineSet
EndChar

StartChar: v
Encoding: 118 118 21
Width: 1200
VWidth: 0
Flags: HW
LayerCount: 2
Back
Fore
SplineSet
400 200 m 1
 400 0 l 1
 600 0 l 1
 600 200 l 1
 400 200 l 1
600 400 m 5
 600 200 l 5
 733.333007812 200 866.666992188 200 1000 200 c 5
 1000 400 l 5
 866.666992188 400 733.333007812 400 600 400 c 5
0 200 m 1
 0 0 l 1
 200 0 l 1
 200 200 l 1
 0 200 l 1
200 200 m 1
 200 0 l 1
 400 0 l 1
 400 200 l 1
 200 200 l 1
EndSplineSet
EndChar

StartChar: w
Encoding: 119 119 22
Width: 1200
VWidth: 0
Flags: HW
LayerCount: 2
Back
Fore
SplineSet
200 400 m 1
 200 200 l 1
 333.333007812 200 466.666992188 200 600 200 c 1
 600 400 l 1
 466.666992188 400 333.333007812 400 200 400 c 1
600 400 m 5
 600 200 l 5
 733.333007812 200 866.666992188 200 1000 200 c 5
 1000 400 l 5
 866.666992188 400 733.333007812 400 600 400 c 5
0 200 m 1
 0 0 l 1
 200 0 l 1
 200 200 l 1
 0 200 l 1
EndSplineSet
EndChar

StartChar: x
Encoding: 120 120 23
Width: 1400
VWidth: 0
Flags: HW
LayerCount: 2
Back
Fore
SplineSet
400 200 m 1
 400 0 l 1
 600 0 l 1
 600 200 l 1
 400 200 l 1
0 400 m 1
 0 200 l 1
 133.3333 200 266.6667 200 400 200 c 1
 400 400 l 1
 266.6667 400 133.3333 400 0 400 c 1
600 200 m 1
 600 0 l 1
 800 0 l 1
 800 200 l 1
 600 200 l 1
800 400 m 1
 800 200 l 1
 933.333007812 200 1066.66699219 200 1200 200 c 1
 1200 400 l 1
 1066.66699219 400 933.333007812 400 800 400 c 1
EndSplineSet
EndChar

StartChar: y
Encoding: 121 121 24
Width: 1600
VWidth: 0
Flags: HW
LayerCount: 2
Back
Fore
SplineSet
600 400 m 1
 600 200 l 1
 733.333007812 200 866.666992188 200 1000 200 c 1
 1000 400 l 1
 866.666992188 400 733.333007812 400 600 400 c 1
0 400 m 1
 0 200 l 1
 133.3333 200 266.6667 200 400 200 c 1
 400 400 l 1
 266.6667 400 133.3333 400 0 400 c 1
400 200 m 1
 400 0 l 1
 600 0 l 1
 600 200 l 1
 400 200 l 1
1000 400 m 1
 1000 200 l 1
 1133.33300781 200 1266.66699219 200 1400 200 c 1
 1400 400 l 1
 1266.66699219 400 1133.33300781 400 1000 400 c 1
EndSplineSet
EndChar

StartChar: A
Encoding: 65 65 25
Width: 600
VWidth: 0
Flags: HW
LayerCount: 2
Back
Fore
SplineSet
200 400 m 1
 200 200 l 1
 333.333007812 200 466.666992188 200 600 200 c 1
 600 400 l 1
 466.666992188 400 333.333007812 400 200 400 c 1
0 200 m 1
 0 0 l 1
 200 0 l 1
 200 200 l 1
 0 200 l 1
EndSplineSet
EndChar

StartChar: B
Encoding: 66 66 26
Width: 1000
VWidth: 0
Flags: HW
LayerCount: 2
Back
Fore
SplineSet
0 400 m 1
 0 200 l 1
 133.33333 200 266.66667 200 400 200 c 1
 400 400 l 1
 266.66667 400 133.33333 400 0 400 c 1
400 200 m 1
 400 0 l 1
 600 0 l 1
 600 200 l 1
 400 200 l 1
600 200 m 1
 600 0 l 1
 800 0 l 1
 800 200 l 1
 600 200 l 1
800 200 m 1
 800 0 l 1
 1000 0 l 1
 1000 200 l 1
 800 200 l 1
EndSplineSet
EndChar

StartChar: C
Encoding: 67 67 27
Width: 1200
VWidth: 0
Flags: HW
LayerCount: 2
Back
Fore
SplineSet
1000 200 m 1
 1000 0 l 1
 1200 0 l 1
 1200 200 l 1
 1000 200 l 1
600 400 m 1
 600 200 l 1
 733.333007812 200 866.666992188 200 1000 200 c 1
 1000 400 l 1
 866.666992188 400 733.333007812 400 600 400 c 1
400 200 m 1
 400 0 l 1
 600 0 l 1
 600 200 l 1
 400 200 l 1
0 400 m 1
 0 200 l 1
 133.33333 200 266.66667 200 400 200 c 1
 400 400 l 1
 266.66667 400 133.33333 400 0 400 c 1
EndSplineSet
EndChar

StartChar: D
Encoding: 68 68 28
Width: 800
VWidth: 0
Flags: HW
LayerCount: 2
Back
Fore
SplineSet
0 400 m 1
 0 200 l 1
 133.33333 200 266.66667 200 400 200 c 1
 400 400 l 1
 266.66667 400 133.33333 400 0 400 c 1
400 200 m 1
 400 0 l 1
 600 0 l 1
 600 200 l 1
 400 200 l 1
600 200 m 1
 600 0 l 1
 800 0 l 1
 800 200 l 1
 600 200 l 1
EndSplineSet
EndChar

StartChar: E
Encoding: 69 69 29
Width: 200
VWidth: 0
Flags: HW
LayerCount: 2
Back
Fore
SplineSet
0 200 m 1
 0 0 l 1
 200 0 l 1
 200 200 l 1
 0 200 l 1
EndSplineSet
EndChar

StartChar: F
Encoding: 70 70 30
Width: 1000
VWidth: 0
Flags: HW
LayerCount: 2
Back
Fore
SplineSet
0 200 m 1
 0 0 l 1
 200 0 l 1
 200 200 l 1
 0 200 l 1
400 400 m 1
 400 200 l 1
 533.333007812 200 666.666992188 200 800 200 c 1
 800 400 l 1
 666.666992188 400 533.333007812 400 400 400 c 1
800 200 m 1
 800 0 l 1
 1000 0 l 1
 1000 200 l 1
 800 200 l 1
200 200 m 1
 200 0 l 1
 400 0 l 1
 400 200 l 1
 200 200 l 1
EndSplineSet
EndChar

StartChar: G
Encoding: 71 71 31
Width: 1000
VWidth: 0
Flags: HW
LayerCount: 2
Back
Fore
SplineSet
800 200 m 1
 800 0 l 1
 1000 0 l 1
 1000 200 l 1
 800 200 l 1
400 400 m 1
 400 200 l 1
 533.333007812 200 666.666992188 200 800 200 c 1
 800 400 l 1
 666.666992188 400 533.333007812 400 400 400 c 1
0 400 m 1
 0 200 l 1
 133.33333 200 266.6667 200 400 200 c 1
 400 400 l 1
 266.6667 400 133.33333 400 0 400 c 1
EndSplineSet
EndChar

StartChar: H
Encoding: 72 72 32
Width: 800
VWidth: 0
Flags: HW
LayerCount: 2
Back
Fore
SplineSet
0 200 m 1
 0 0 l 1
 200 0 l 1
 200 200 l 1
 0 200 l 1
200 200 m 1
 200 0 l 1
 400 0 l 1
 400 200 l 1
 200 200 l 1
400 200 m 1
 400 0 l 1
 600 0 l 1
 600 200 l 1
 400 200 l 1
600 200 m 1
 600 0 l 1
 800 0 l 1
 800 200 l 1
 600 200 l 1
EndSplineSet
EndChar

StartChar: I
Encoding: 73 73 33
Width: 400
VWidth: 0
Flags: HW
LayerCount: 2
Back
Fore
SplineSet
200 200 m 1
 200 0 l 1
 400 0 l 1
 400 200 l 1
 200 200 l 1
0 200 m 1
 0 0 l 1
 200 0 l 1
 200 200 l 1
 0 200 l 1
EndSplineSet
EndChar

StartChar: J
Encoding: 74 74 34
Width: 1400
VWidth: 0
Flags: HW
LayerCount: 2
Back
Fore
SplineSet
600 400 m 1
 600 200 l 1
 733.333007812 200 866.666992188 200 1000 200 c 1
 1000 400 l 1
 866.666992188 400 733.333007812 400 600 400 c 1
1000 400 m 1
 1000 200 l 1
 1133.33300781 200 1266.66699219 200 1400 200 c 1
 1400 400 l 1
 1266.66699219 400 1133.33300781 400 1000 400 c 1
200 400 m 1
 200 200 l 1
 333.333007812 200 466.666992188 200 600 200 c 1
 600 400 l 1
 466.666992188 400 333.333007812 400 200 400 c 1
0 200 m 1
 0 0 l 1
 200 0 l 1
 200 200 l 1
 0 200 l 1
EndSplineSet
EndChar

StartChar: K
Encoding: 75 75 35
Width: 1000
VWidth: 0
Flags: HW
LayerCount: 2
Back
Fore
SplineSet
400 200 m 1
 400 0 l 1
 600 0 l 1
 600 200 l 1
 400 200 l 1
600 400 m 1
 600 200 l 1
 733.333007812 200 866.666992188 200 1000 200 c 1
 1000 400 l 1
 866.666992188 400 733.333007812 400 600 400 c 1
0 400 m 1
 0 200 l 1
 133.3333 200 266.6667 200 400 200 c 1
 400 400 l 1
 266.6667 400 133.3333 400 0 400 c 1
EndSplineSet
EndChar

StartChar: L
Encoding: 76 76 36
Width: 1000
VWidth: 0
Flags: HW
LayerCount: 2
Back
Fore
SplineSet
0 200 m 1
 0 0 l 1
 200 0 l 1
 200 200 l 1
 0 200 l 1
200 400 m 1
 200 200 l 1
 333.333007812 200 466.666992188 200 600 200 c 1
 600 400 l 1
 466.666992188 400 333.333007812 400 200 400 c 1
800 200 m 1
 800 0 l 1
 1000 0 l 1
 1000 200 l 1
 800 200 l 1
600 200 m 1
 600 0 l 1
 800 0 l 1
 800 200 l 1
 600 200 l 1
EndSplineSet
EndChar

StartChar: M
Encoding: 77 77 37
Width: 800
VWidth: 0
Flags: HW
LayerCount: 2
Back
Fore
SplineSet
0 400 m 1
 0 200 l 1
 133.3333 200 266.6667 200 400 200 c 1
 400 400 l 1
 266.6667 400 133.3333 400 0 400 c 1
400 400 m 1
 400 200 l 1
 533.333007812 200 666.666992188 200 800 200 c 1
 800 400 l 1
 666.666992188 400 533.333007812 400 400 400 c 1
EndSplineSet
EndChar

StartChar: N
Encoding: 78 78 38
Width: 600
VWidth: 0
Flags: HW
LayerCount: 2
Back
Fore
SplineSet
400 200 m 1
 400 0 l 1
 600 0 l 1
 600 200 l 1
 400 200 l 1
0 400 m 1
 0 200 l 1
 133.3333 200 266.6667 200 400 200 c 1
 400 400 l 1
 266.6667 400 133.3333 400 0 400 c 1
EndSplineSet
EndChar

StartChar: O
Encoding: 79 79 39
Width: 1200
VWidth: 0
Flags: HW
LayerCount: 2
Back
Fore
SplineSet
0 400 m 1
 0 200 l 1
 133.3333 200 266.6667 200 400 200 c 1
 400 400 l 1
 266.6667 400 133.3333 400 0 400 c 1
800 400 m 1
 800 200 l 1
 933.333007812 200 1066.66699219 200 1200 200 c 1
 1200 400 l 1
 1066.66699219 400 933.333007812 400 800 400 c 1
400 400 m 1
 400 200 l 1
 533.333007812 200 666.666992188 200 800 200 c 1
 800 400 l 1
 666.666992188 400 533.333007812 400 400 400 c 1
EndSplineSet
EndChar

StartChar: P
Encoding: 80 80 40
Width: 1200
VWidth: 0
Flags: HW
LayerCount: 2
Back
Fore
SplineSet
0 200 m 1
 0 0 l 1
 200 0 l 1
 200 200 l 1
 0 200 l 1
1000 200 m 1
 1000 0 l 1
 1200 0 l 1
 1200 200 l 1
 1000 200 l 1
600 400 m 1
 600 200 l 1
 733.333007812 200 866.666992188 200 1000 200 c 1
 1000 400 l 1
 866.666992188 400 733.333007812 400 600 400 c 1
200 400 m 1
 200 200 l 1
 333.333007812 200 466.666992188 200 600 200 c 1
 600 400 l 1
 466.666992188 400 333.333007812 400 200 400 c 1
EndSplineSet
EndChar

StartChar: Q
Encoding: 81 81 41
Width: 1400
VWidth: 0
Flags: HW
LayerCount: 2
Back
Fore
SplineSet
0 400 m 1
 0 200 l 1
 133.3333 200 266.6667 200 400 200 c 1
 400 400 l 1
 266.6667 400 133.3333 400 0 400 c 1
400 400 m 1
 400 200 l 1
 533.333007812 200 666.666992188 200 800 200 c 1
 800 400 l 1
 666.666992188 400 533.333007812 400 400 400 c 1
800 200 m 1
 800 0 l 1
 1000 0 l 1
 1000 200 l 1
 800 200 l 1
1000 400 m 1
 1000 200 l 1
 1133.33300781 200 1266.66699219 200 1400 200 c 1
 1400 400 l 1
 1266.66699219 400 1133.33300781 400 1000 400 c 1
EndSplineSet
EndChar

StartChar: R
Encoding: 82 82 42
Width: 800
VWidth: 0
Flags: HW
LayerCount: 2
Back
Fore
SplineSet
200 400 m 1
 200 200 l 1
 333.333007812 200 466.666992188 200 600 200 c 1
 600 400 l 1
 466.666992188 400 333.333007812 400 200 400 c 1
0 200 m 1
 0 0 l 1
 200 0 l 1
 200 200 l 1
 0 200 l 1
600 200 m 1
 600 0 l 1
 800 0 l 1
 800 200 l 1
 600 200 l 1
EndSplineSet
EndChar

StartChar: S
Encoding: 83 83 43
Width: 600
VWidth: 0
Flags: HW
LayerCount: 2
Back
Fore
SplineSet
200 200 m 1
 200 0 l 1
 400 0 l 1
 400 200 l 1
 200 200 l 1
400 200 m 1
 400 0 l 1
 600 0 l 1
 600 200 l 1
 400 200 l 1
0 200 m 1
 0 0 l 1
 200 0 l 1
 200 200 l 1
 0 200 l 1
EndSplineSet
EndChar

StartChar: T
Encoding: 84 84 44
Width: 400
VWidth: 0
Flags: HW
LayerCount: 2
Back
Fore
SplineSet
0 400 m 1
 0 200 l 1
 133.33333 200 266.66667 200 400 200 c 1
 400 400 l 1
 266.66667 400 133.33333 400 0 400 c 1
EndSplineSet
EndChar

StartChar: U
Encoding: 85 85 45
Width: 800
VWidth: 0
Flags: HW
LayerCount: 2
Back
Fore
SplineSet
400 400 m 1
 400 200 l 1
 533.333007812 200 666.666992188 200 800 200 c 1
 800 400 l 1
 666.666992188 400 533.333007812 400 400 400 c 1
0 200 m 1
 0 0 l 1
 200 0 l 1
 200 200 l 1
 0 200 l 1
200 200 m 1
 200 0 l 1
 400 0 l 1
 400 200 l 1
 200 200 l 1
EndSplineSet
EndChar

StartChar: V
Encoding: 86 86 46
Width: 1000
VWidth: 0
Flags: HW
LayerCount: 2
Back
Fore
SplineSet
400 200 m 1
 400 0 l 1
 600 0 l 1
 600 200 l 1
 400 200 l 1
600 400 m 5
 600 200 l 5
 733.333007812 200 866.666992188 200 1000 200 c 5
 1000 400 l 5
 866.666992188 400 733.333007812 400 600 400 c 5
0 200 m 1
 0 0 l 1
 200 0 l 1
 200 200 l 1
 0 200 l 1
200 200 m 1
 200 0 l 1
 400 0 l 1
 400 200 l 1
 200 200 l 1
EndSplineSet
EndChar

StartChar: W
Encoding: 87 87 47
Width: 1000
VWidth: 0
Flags: HW
LayerCount: 2
Back
Fore
SplineSet
200 400 m 1
 200 200 l 1
 333.333007812 200 466.666992188 200 600 200 c 1
 600 400 l 1
 466.666992188 400 333.333007812 400 200 400 c 1
600 400 m 5
 600 200 l 5
 733.333007812 200 866.666992188 200 1000 200 c 5
 1000 400 l 5
 866.666992188 400 733.333007812 400 600 400 c 5
0 200 m 1
 0 0 l 1
 200 0 l 1
 200 200 l 1
 0 200 l 1
EndSplineSet
EndChar

StartChar: X
Encoding: 88 88 48
Width: 1200
VWidth: 0
Flags: HW
LayerCount: 2
Back
Fore
SplineSet
400 200 m 1
 400 0 l 1
 600 0 l 1
 600 200 l 1
 400 200 l 1
0 400 m 1
 0 200 l 1
 133.3333 200 266.6667 200 400 200 c 1
 400 400 l 1
 266.6667 400 133.3333 400 0 400 c 1
600 200 m 1
 600 0 l 1
 800 0 l 1
 800 200 l 1
 600 200 l 1
800 400 m 1
 800 200 l 1
 933.333007812 200 1066.66699219 200 1200 200 c 1
 1200 400 l 1
 1066.66699219 400 933.333007812 400 800 400 c 1
EndSplineSet
EndChar

StartChar: Y
Encoding: 89 89 49
Width: 1400
VWidth: 0
Flags: HW
LayerCount: 2
Back
Fore
SplineSet
600 400 m 1
 600 200 l 1
 733.333007812 200 866.666992188 200 1000 200 c 1
 1000 400 l 1
 866.666992188 400 733.333007812 400 600 400 c 1
0 400 m 1
 0 200 l 1
 133.3333 200 266.6667 200 400 200 c 1
 400 400 l 1
 266.6667 400 133.3333 400 0 400 c 1
400 200 m 1
 400 0 l 1
 600 0 l 1
 600 200 l 1
 400 200 l 1
1000 400 m 1
 1000 200 l 1
 1133.33300781 200 1266.66699219 200 1400 200 c 1
 1400 400 l 1
 1266.66699219 400 1133.33300781 400 1000 400 c 1
EndSplineSet
EndChar

StartChar: 0
Encoding: 48 48 50
Width: 2200
VWidth: 0
Flags: HW
LayerCount: 2
Back
Fore
SplineSet
1600 400 m 1
 1600 200 l 1
 1733.33300781 200 1866.66699219 200 2000 200 c 1
 2000 400 l 1
 1866.66699219 400 1733.33300781 400 1600 400 c 1
800 400 m 1
 800 200 l 1
 933.333007812 200 1066.66699219 200 1200 200 c 1
 1200 400 l 1
 1066.66699219 400 933.333007812 400 800 400 c 1
1200 400 m 1
 1200 200 l 1
 1333.33300781 200 1466.66699219 200 1600 200 c 1
 1600 400 l 1
 1466.66699219 400 1333.33300781 400 1200 400 c 1
0 400 m 1
 0 200 l 1
 133.333007812 200 266.666992188 200 400 200 c 1
 400 400 l 1
 266.666992188 400 133.333007812 400 0 400 c 1
400 400 m 1
 400 200 l 1
 533.333007812 200 666.666992188 200 800 200 c 1
 800 400 l 1
 666.666992188 400 533.333007812 400 400 400 c 1
EndSplineSet
EndChar

StartChar: 1
Encoding: 49 49 51
Width: 2000
VWidth: 0
Flags: HW
LayerCount: 2
Back
Fore
SplineSet
200 400 m 1
 200 200 l 1
 333.333007812 200 466.666992188 200 600 200 c 1
 600 400 l 1
 466.666992188 400 333.333007812 400 200 400 c 1
600 400 m 1
 600 200 l 1
 733.333007812 200 866.666992188 200 1000 200 c 1
 1000 400 l 1
 866.666992188 400 733.333007812 400 600 400 c 1
0 200 m 1
 0 0 l 1
 200 0 l 1
 200 200 l 1
 0 200 l 1
1400 400 m 1
 1400 200 l 1
 1533.33300781 200 1666.66699219 200 1800 200 c 1
 1800 400 l 1
 1666.66699219 400 1533.33300781 400 1400 400 c 1
1000 400 m 1
 1000 200 l 1
 1133.33300781 200 1266.66699219 200 1400 200 c 1
 1400 400 l 1
 1266.66699219 400 1133.33300781 400 1000 400 c 1
EndSplineSet
EndChar

StartChar: 2
Encoding: 50 50 52
Width: 1800
VWidth: 0
Flags: HW
LayerCount: 2
Back
Fore
SplineSet
800 400 m 1
 800 200 l 1
 933.333007812 200 1066.66699219 200 1200 200 c 1
 1200 400 l 1
 1066.66699219 400 933.333007812 400 800 400 c 1
1200 400 m 1
 1200 200 l 1
 1333.33300781 200 1466.66699219 200 1600 200 c 1
 1600 400 l 1
 1466.66699219 400 1333.33300781 400 1200 400 c 1
200 200 m 1
 200 0 l 1
 400 0 l 1
 400 200 l 1
 200 200 l 1
0 200 m 1
 0 0 l 1
 200 0 l 1
 200 200 l 1
 0 200 l 1
400 400 m 1
 400 200 l 1
 533.333007812 200 666.666992188 200 800 200 c 1
 800 400 l 1
 666.666992188 400 533.333007812 400 400 400 c 1
EndSplineSet
EndChar

StartChar: 3
Encoding: 51 51 53
Width: 1600
VWidth: 0
Flags: HW
LayerCount: 2
Back
Fore
SplineSet
600 400 m 1
 600 200 l 1
 733.333007812 200 866.666992188 200 1000 200 c 1
 1000 400 l 1
 866.666992188 400 733.333007812 400 600 400 c 1
0 200 m 1
 0 0 l 1
 200 0 l 1
 200 200 l 1
 0 200 l 1
400 200 m 1
 400 0 l 1
 600 0 l 1
 600 200 l 1
 400 200 l 1
200 200 m 1
 200 0 l 1
 400 0 l 1
 400 200 l 1
 200 200 l 1
1000 400 m 1
 1000 200 l 1
 1133.33300781 200 1266.66699219 200 1400 200 c 1
 1400 400 l 1
 1266.66699219 400 1133.33300781 400 1000 400 c 1
EndSplineSet
EndChar

StartChar: 4
Encoding: 52 52 54
Width: 1400
VWidth: 0
Flags: HW
LayerCount: 2
Back
Fore
SplineSet
800 400 m 1
 800 200 l 1
 933.333007812 200 1066.66699219 200 1200 200 c 1
 1200 400 l 1
 1066.66699219 400 933.333007812 400 800 400 c 1
200 200 m 1
 200 0 l 1
 400 0 l 1
 400 200 l 1
 200 200 l 1
600 200 m 1
 600 0 l 1
 800 0 l 1
 800 200 l 1
 600 200 l 1
400 200 m 1
 400 0 l 1
 600 0 l 1
 600 200 l 1
 400 200 l 1
0 200 m 1
 0 0 l 1
 200 0 l 1
 200 200 l 1
 0 200 l 1
EndSplineSet
EndChar

StartChar: 5
Encoding: 53 53 55
Width: 1200
VWidth: 0
Flags: HW
LayerCount: 2
Back
Fore
SplineSet
0 200 m 1
 0 0 l 1
 200 0 l 1
 200 200 l 1
 0 200 l 1
400 200 m 1
 400 0 l 1
 600 0 l 1
 600 200 l 1
 400 200 l 1
600 200 m 1
 600 0 l 1
 800 0 l 1
 800 200 l 1
 600 200 l 1
800 200 m 1
 800 0 l 1
 1000 0 l 1
 1000 200 l 1
 800 200 l 1
200 200 m 1
 200 0 l 1
 400 0 l 1
 400 200 l 1
 200 200 l 1
EndSplineSet
EndChar

StartChar: 6
Encoding: 54 54 56
Width: 1400
VWidth: 0
Flags: HW
LayerCount: 2
Back
Fore
SplineSet
400 200 m 1
 400 0 l 1
 600 0 l 1
 600 200 l 1
 400 200 l 1
1000 200 m 1
 1000 0 l 1
 1200 0 l 1
 1200 200 l 1
 1000 200 l 1
0 400 m 1
 0 200 l 1
 133.333007812 200 266.666992188 200 400 200 c 1
 400 400 l 1
 266.666992188 400 133.333007812 400 0 400 c 1
800 200 m 1
 800 0 l 1
 1000 0 l 1
 1000 200 l 1
 800 200 l 1
600 200 m 1
 600 0 l 1
 800 0 l 1
 800 200 l 1
 600 200 l 1
EndSplineSet
EndChar

StartChar: 7
Encoding: 55 55 57
Width: 1600
VWidth: 0
Flags: HW
LayerCount: 2
Back
Fore
SplineSet
800 200 m 1
 800 0 l 1
 1000 0 l 1
 1000 200 l 1
 800 200 l 1
1000 200 m 1
 1000 0 l 1
 1200 0 l 1
 1200 200 l 1
 1000 200 l 1
400 400 m 1
 400 200 l 1
 533.333007812 200 666.666992188 200 800 200 c 1
 800 400 l 1
 666.666992188 400 533.333007812 400 400 400 c 1
0 400 m 1
 0 200 l 1
 133.333007812 200 266.666992188 200 400 200 c 1
 400 400 l 1
 266.666992188 400 133.333007812 400 0 400 c 1
1200 200 m 1
 1200 0 l 1
 1400 0 l 1
 1400 200 l 1
 1200 200 l 1
EndSplineSet
EndChar

StartChar: 8
Encoding: 56 56 58
Width: 1800
VWidth: 0
Flags: HW
LayerCount: 2
Back
Fore
SplineSet
1400 200 m 1
 1400 0 l 1
 1600 0 l 1
 1600 200 l 1
 1400 200 l 1
800 400 m 1
 800 200 l 1
 933.333007812 200 1066.66699219 200 1200 200 c 1
 1200 400 l 1
 1066.66699219 400 933.333007812 400 800 400 c 1
0 400 m 1
 0 200 l 1
 133.333007812 200 266.666992188 200 400 200 c 1
 400 400 l 1
 266.666992188 400 133.333007812 400 0 400 c 1
400 400 m 1
 400 200 l 1
 533.333007812 200 666.666992188 200 800 200 c 1
 800 400 l 1
 666.666992188 400 533.333007812 400 400 400 c 1
1200 200 m 1
 1200 0 l 1
 1400 0 l 1
 1400 200 l 1
 1200 200 l 1
EndSplineSet
EndChar

StartChar: 9
Encoding: 57 57 59
Width: 2000
VWidth: 0
Flags: HW
LayerCount: 2
Back
Fore
SplineSet
1600 200 m 1
 1600 0 l 1
 1800 0 l 1
 1800 200 l 1
 1600 200 l 1
400 400 m 1
 400 200 l 1
 533.333007812 200 666.666992188 200 800 200 c 1
 800 400 l 1
 666.666992188 400 533.333007812 400 400 400 c 1
0 400 m 1
 0 200 l 1
 133.333007812 200 266.666992188 200 400 200 c 1
 400 400 l 1
 266.666992188 400 133.333007812 400 0 400 c 1
1200 400 m 1
 1200 200 l 1
 1333.33300781 200 1466.66699219 200 1600 200 c 1
 1600 400 l 1
 1466.66699219 400 1333.33300781 400 1200 400 c 1
800 400 m 1
 800 200 l 1
 933.333007812 200 1066.66699219 200 1200 200 c 1
 1200 400 l 1
 1066.66699219 400 933.333007812 400 800 400 c 1
EndSplineSet
EndChar

StartChar: g
Encoding: 103 103 60
Width: 1200
VWidth: 0
Flags: HW
LayerCount: 2
Back
Fore
SplineSet
800 200 m 1
 800 0 l 1
 1000 0 l 1
 1000 200 l 1
 800 200 l 1
400 400 m 1
 400 200 l 1
 533.333007812 200 666.666992188 200 800 200 c 1
 800 400 l 1
 666.666992188 400 533.333007812 400 400 400 c 1
0 400 m 1
 0 200 l 1
 133.33333 200 266.6667 200 400 200 c 1
 400 400 l 1
 266.6667 400 133.33333 400 0 400 c 1
EndSplineSet
EndChar

StartChar: z
Encoding: 122 122 61
Width: 1400
VWidth: 0
Flags: HW
LayerCount: 2
Back
Fore
SplineSet
1000 200 m 1
 1000 0 l 1
 1200 0 l 1
 1200 200 l 1
 1000 200 l 1
800 200 m 1
 800 0 l 1
 1000 0 l 1
 1000 200 l 1
 800 200 l 1
0 400 m 1
 0 200 l 1
 133.3333 200 266.6667 200 400 200 c 1
 400 400 l 1
 266.6667 400 133.3333 400 0 400 c 1
400 400 m 1
 400 200 l 1
 533.333007812 200 666.666992188 200 800 200 c 1
 800 400 l 1
 666.666992188 400 533.333007812 400 400 400 c 1
EndSplineSet
EndChar

StartChar: Z
Encoding: 90 90 62
Width: 1200
VWidth: 0
Flags: HW
LayerCount: 2
Back
Fore
SplineSet
1000 200 m 1
 1000 0 l 1
 1200 0 l 1
 1200 200 l 1
 1000 200 l 1
800 200 m 1
 800 0 l 1
 1000 0 l 1
 1000 200 l 1
 800 200 l 1
0 400 m 1
 0 200 l 1
 133.3333 200 266.6667 200 400 200 c 1
 400 400 l 1
 266.6667 400 133.3333 400 0 400 c 1
400 400 m 1
 400 200 l 1
 533.333007812 200 666.666992188 200 800 200 c 1
 800 400 l 1
 666.666992188 400 533.333007812 400 400 400 c 1
EndSplineSet
EndChar

StartChar: @
Encoding: 64 64 63
Width: 2000
VWidth: 0
Flags: HW
LayerCount: 2
Back
Fore
SplineSet
1600 200 m 1
 1600 0 l 1
 1800 0 l 1
 1800 200 l 1
 1600 200 l 1
1000 200 m 1
 1000 0 l 1
 1200 0 l 1
 1200 200 l 1
 1000 200 l 1
1200 400 m 1
 1200 200 l 1
 1333.33300781 200 1466.66699219 200 1600 200 c 1
 1600 400 l 1
 1466.66699219 400 1333.33300781 400 1200 400 c 1
0 200 m 1
 0 0 l 1
 200 0 l 1
 200 200 l 1
 0 200 l 1
600 400 m 1
 600 200 l 1
 733.333007812 200 866.666992188 200 1000 200 c 1
 1000 400 l 1
 866.666992188 400 733.333007812 400 600 400 c 1
200 400 m 1
 200 200 l 1
 333.333007812 200 466.666992188 200 600 200 c 1
 600 400 l 1
 466.666992188 400 333.333007812 400 200 400 c 1
EndSplineSet
EndChar

StartChar: (
Encoding: 40 40 64
Width: 1800
VWidth: 0
Flags: HW
LayerCount: 2
Back
Fore
SplineSet
400 200 m 1
 400 0 l 1
 600 0 l 1
 600 200 l 1
 400 200 l 1
0 400 m 1
 0 200 l 1
 133.333007812 200 266.666992188 200 400 200 c 1
 400 400 l 1
 266.666992188 400 133.333007812 400 0 400 c 1
600 400 m 1
 600 200 l 1
 733.333007812 200 866.666992188 200 1000 200 c 1
 1000 400 l 1
 866.666992188 400 733.333007812 400 600 400 c 1
1000 400 m 1
 1000 200 l 1
 1133.33300781 200 1266.66699219 200 1400 200 c 1
 1400 400 l 1
 1266.66699219 400 1133.33300781 400 1000 400 c 1
1400 200 m 1
 1400 0 l 1
 1600 0 l 1
 1600 200 l 1
 1400 200 l 1
EndSplineSet
EndChar

StartChar: )
Encoding: 41 41 65
Width: 2200
VWidth: 0
Flags: HW
LayerCount: 2
Back
Fore
SplineSet
1600 400 m 1
 1600 200 l 1
 1733.33300781 200 1866.66699219 200 2000 200 c 1
 2000 400 l 1
 1866.66699219 400 1733.33300781 400 1600 400 c 1
1400 200 m 1
 1400 0 l 1
 1600 0 l 1
 1600 200 l 1
 1400 200 l 1
1000 400 m 1
 1000 200 l 1
 1133.33300781 200 1266.66699219 200 1400 200 c 1
 1400 400 l 1
 1266.66699219 400 1133.33300781 400 1000 400 c 1
600 400 m 1
 600 200 l 1
 733.333007812 200 866.666992188 200 1000 200 c 1
 1000 400 l 1
 866.666992188 400 733.333007812 400 600 400 c 1
0 400 m 1
 0 200 l 1
 133.333007812 200 266.666992188 200 400 200 c 1
 400 400 l 1
 266.666992188 400 133.333007812 400 0 400 c 1
400 200 m 1
 400 0 l 1
 600 0 l 1
 600 200 l 1
 400 200 l 1
EndSplineSet
EndChar

StartChar: -
Encoding: 45 45 66
Width: 1800
VWidth: 0
Flags: HW
LayerCount: 2
Back
Fore
SplineSet
800 200 m 1
 800 0 l 1
 1000 0 l 1
 1000 200 l 1
 800 200 l 1
600 200 m 1
 600 0 l 1
 800 0 l 1
 800 200 l 1
 600 200 l 1
400 200 m 1
 400 0 l 1
 600 0 l 1
 600 200 l 1
 400 200 l 1
0 400 m 1
 0 200 l 1
 133.333007812 200 266.666992188 200 400 200 c 1
 400 400 l 1
 266.666992188 400 133.333007812 400 0 400 c 1
1000 200 m 1
 1000 0 l 1
 1200 0 l 1
 1200 200 l 1
 1000 200 l 1
1200 400 m 1
 1200 200 l 1
 1333.33300781 200 1466.66699219 200 1600 200 c 1
 1600 400 l 1
 1466.66699219 400 1333.33300781 400 1200 400 c 1
EndSplineSet
EndChar

StartChar: =
Encoding: 61 61 67
Width: 1600
VWidth: 0
Flags: HW
LayerCount: 2
Back
Fore
SplineSet
1000 400 m 1
 1000 200 l 1
 1133.33300781 200 1266.66699219 200 1400 200 c 1
 1400 400 l 1
 1266.66699219 400 1133.33300781 400 1000 400 c 1
800 200 m 1
 800 0 l 1
 1000 0 l 1
 1000 200 l 1
 800 200 l 1
0 400 m 1
 0 200 l 1
 133.333007812 200 266.666992188 200 400 200 c 1
 400 400 l 1
 266.666992188 400 133.333007812 400 0 400 c 1
400 200 m 1
 400 0 l 1
 600 0 l 1
 600 200 l 1
 400 200 l 1
600 200 m 1
 600 0 l 1
 800 0 l 1
 800 200 l 1
 600 200 l 1
EndSplineSet
EndChar

StartChar: _
Encoding: 95 95 68
Width: 2000
VWidth: 0
Flags: HW
LayerCount: 2
Back
Fore
SplineSet
1200 200 m 1
 1200 0 l 1
 1400 0 l 1
 1400 200 l 1
 1200 200 l 1
1400 400 m 1
 1400 200 l 1
 1533.33300781 200 1666.66699219 200 1800 200 c 1
 1800 400 l 1
 1666.66699219 400 1533.33300781 400 1400 400 c 1
0 200 m 1
 0 0 l 1
 200 0 l 1
 200 200 l 1
 0 200 l 1
800 400 m 1
 800 200 l 1
 933.333007812 200 1066.66699219 200 1200 200 c 1
 1200 400 l 1
 1066.66699219 400 933.333007812 400 800 400 c 1
200 200 m 1
 200 0 l 1
 400 0 l 1
 400 200 l 1
 200 200 l 1
400 400 m 1
 400 200 l 1
 533.333007812 200 666.666992188 200 800 200 c 1
 800 400 l 1
 666.666992188 400 533.333007812 400 400 400 c 1
EndSplineSet
EndChar

StartChar: +
Encoding: 43 43 69
Width: 1600
VWidth: 0
Flags: HW
LayerCount: 2
Back
Fore
SplineSet
1200 200 m 1
 1200 0 l 1
 1400 0 l 1
 1400 200 l 1
 1200 200 l 1
200 400 m 1
 200 200 l 1
 333.333007812 200 466.666992188 200 600 200 c 1
 600 400 l 1
 466.666992188 400 333.333007812 400 200 400 c 1
0 200 m 1
 0 0 l 1
 200 0 l 1
 200 200 l 1
 0 200 l 1
800 400 m 1
 800 200 l 1
 933.333007812 200 1066.66699219 200 1200 200 c 1
 1200 400 l 1
 1066.66699219 400 933.333007812 400 800 400 c 1
600 200 m 1
 600 0 l 1
 800 0 l 1
 800 200 l 1
 600 200 l 1
EndSplineSet
EndChar

StartChar: /
Encoding: 47 47 70
Width: 1600
VWidth: 0
Flags: HW
LayerCount: 2
Back
Fore
SplineSet
600 200 m 1
 600 0 l 1
 800 0 l 1
 800 200 l 1
 600 200 l 1
800 400 m 1
 800 200 l 1
 933.333007812 200 1066.66699219 200 1200 200 c 1
 1200 400 l 1
 1066.66699219 400 933.333007812 400 800 400 c 1
400 200 m 1
 400 0 l 1
 600 0 l 1
 600 200 l 1
 400 200 l 1
0 400 m 1
 0 200 l 1
 133.333007812 200 266.666992188 200 400 200 c 1
 400 400 l 1
 266.666992188 400 133.333007812 400 0 400 c 1
1200 200 m 1
 1200 0 l 1
 1400 0 l 1
 1400 200 l 1
 1200 200 l 1
EndSplineSet
EndChar

StartChar: ?
Encoding: 63 63 71
Width: 1800
VWidth: 0
Flags: HW
LayerCount: 2
Back
Fore
SplineSet
200 200 m 1
 200 0 l 1
 400 0 l 1
 400 200 l 1
 200 200 l 1
400 400 m 1
 400 200 l 1
 533.333007812 200 666.666992188 200 800 200 c 1
 800 400 l 1
 666.666992188 400 533.333007812 400 400 400 c 1
1400 200 m 1
 1400 0 l 1
 1600 0 l 1
 1600 200 l 1
 1400 200 l 1
1200 200 m 1
 1200 0 l 1
 1400 0 l 1
 1400 200 l 1
 1200 200 l 1
0 200 m 1
 0 0 l 1
 200 0 l 1
 200 200 l 1
 0 200 l 1
800 400 m 1
 800 200 l 1
 933.333007812 200 1066.66699219 200 1200 200 c 1
 1200 400 l 1
 1066.66699219 400 933.333007812 400 800 400 c 1
EndSplineSet
EndChar

StartChar: .
Encoding: 46 46 72
Width: 2000
VWidth: 0
Flags: HW
LayerCount: 2
Back
Fore
SplineSet
1400 400 m 1
 1400 200 l 1
 1533.33300781 200 1666.66699219 200 1800 200 c 1
 1800 400 l 1
 1666.66699219 400 1533.33300781 400 1400 400 c 1
600 200 m 1
 600 0 l 1
 800 0 l 1
 800 200 l 1
 600 200 l 1
800 400 m 1
 800 200 l 1
 933.333007812 200 1066.66699219 200 1200 200 c 1
 1200 400 l 1
 1066.66699219 400 933.333007812 400 800 400 c 1
1200 200 m 1
 1200 0 l 1
 1400 0 l 1
 1400 200 l 1
 1200 200 l 1
200 400 m 1
 200 200 l 1
 333.333007812 200 466.666992188 200 600 200 c 1
 600 400 l 1
 466.666992188 400 333.333007812 400 200 400 c 1
0 200 m 1
 0 0 l 1
 200 0 l 1
 200 200 l 1
 0 200 l 1
EndSplineSet
EndChar

StartChar: ,
Encoding: 44 44 73
Width: 2200
VWidth: 0
Flags: HW
LayerCount: 2
Back
Fore
SplineSet
1600 400 m 1
 1600 200 l 1
 1733.33300781 200 1866.66699219 200 2000 200 c 1
 2000 400 l 1
 1866.66699219 400 1733.33300781 400 1600 400 c 1
1000 200 m 1
 1000 0 l 1
 1200 0 l 1
 1200 200 l 1
 1000 200 l 1
0 400 m 1
 0 200 l 1
 133.333007812 200 266.666992188 200 400 200 c 1
 400 400 l 1
 266.666992188 400 133.333007812 400 0 400 c 1
800 200 m 1
 800 0 l 1
 1000 0 l 1
 1000 200 l 1
 800 200 l 1
400 400 m 1
 400 200 l 1
 533.333007812 200 666.666992188 200 800 200 c 1
 800 400 l 1
 666.666992188 400 533.333007812 400 400 400 c 1
1200 400 m 1
 1200 200 l 1
 1333.33300781 200 1466.66699219 200 1600 200 c 1
 1600 400 l 1
 1466.66699219 400 1333.33300781 400 1200 400 c 1
EndSplineSet
EndChar

StartChar: :
Encoding: 58 58 74
Width: 2000
VWidth: 0
Flags: HW
LayerCount: 2
Back
Fore
SplineSet
1600 200 m 1
 1600 0 l 1
 1800 0 l 1
 1800 200 l 1
 1600 200 l 1
400 400 m 1
 400 200 l 1
 533.333007812 200 666.666992188 200 800 200 c 1
 800 400 l 1
 666.666992188 400 533.333007812 400 400 400 c 1
1200 200 m 1
 1200 0 l 1
 1400 0 l 1
 1400 200 l 1
 1200 200 l 1
0 400 m 1
 0 200 l 1
 133.333007812 200 266.666992188 200 400 200 c 1
 400 400 l 1
 266.666992188 400 133.333007812 400 0 400 c 1
1400 200 m 1
 1400 0 l 1
 1600 0 l 1
 1600 200 l 1
 1400 200 l 1
800 400 m 1
 800 200 l 1
 933.333007812 200 1066.66699219 200 1200 200 c 1
 1200 400 l 1
 1066.66699219 400 933.333007812 400 800 400 c 1
EndSplineSet
EndChar

StartChar: ;
Encoding: 59 59 75
Width: 2000
VWidth: 0
Flags: HW
LayerCount: 2
Back
Fore
SplineSet
1200 400 m 1
 1200 200 l 1
 1333.33300781 200 1466.66699219 200 1600 200 c 1
 1600 400 l 1
 1466.66699219 400 1333.33300781 400 1200 400 c 1
1600 200 m 1
 1600 0 l 1
 1800 0 l 1
 1800 200 l 1
 1600 200 l 1
400 200 m 1
 400 0 l 1
 600 0 l 1
 600 200 l 1
 400 200 l 1
600 400 m 1
 600 200 l 1
 733.333007812 200 866.666992188 200 1000 200 c 1
 1000 400 l 1
 866.666992188 400 733.333007812 400 600 400 c 1
0 400 m 1
 0 200 l 1
 133.333007812 200 266.666992188 200 400 200 c 1
 400 400 l 1
 266.666992188 400 133.333007812 400 0 400 c 1
1000 200 m 1
 1000 0 l 1
 1200 0 l 1
 1200 200 l 1
 1000 200 l 1
EndSplineSet
EndChar

StartChar: '
Encoding: 39 39 76
Width: 2200
VWidth: 0
Flags: HW
LayerCount: 2
Back
Fore
SplineSet
1000 400 m 1
 1000 200 l 1
 1133.33300781 200 1266.66699219 200 1400 200 c 1
 1400 400 l 1
 1266.66699219 400 1133.33300781 400 1000 400 c 1
600 400 m 1
 600 200 l 1
 733.333007812 200 866.666992188 200 1000 200 c 1
 1000 400 l 1
 866.666992188 400 733.333007812 400 600 400 c 1
200 400 m 1
 200 200 l 1
 333.333007812 200 466.666992188 200 600 200 c 1
 600 400 l 1
 466.666992188 400 333.333007812 400 200 400 c 1
0 200 m 1
 0 0 l 1
 200 0 l 1
 200 200 l 1
 0 200 l 1
1800 200 m 1
 1800 0 l 1
 2000 0 l 1
 2000 200 l 1
 1800 200 l 1
1400 400 m 1
 1400 200 l 1
 1533.33300781 200 1666.66699219 200 1800 200 c 1
 1800 400 l 1
 1666.66699219 400 1533.33300781 400 1400 400 c 1
EndSplineSet
EndChar

StartChar: bar
Encoding: 124 124 79
Width: 300
VWidth: 0
Flags: HW
LayerCount: 2
Back
Fore
SplineSet
0 400 m 1
 100 400 l 1
 100 200 100 200 100 0 c 1
 0 0 l 1
 0 200 0 200 0 400 c 1
EndSplineSet
EndChar

StartChar: exclam
Encoding: 33 33 80
Width: 2000
VWidth: 0
Flags: W
LayerCount: 2
Back
Fore
SplineSet
1400 400 m 1
 1400 200 l 1
 1400 200 1400 200 1800 200 c 1
 1800 400 l 1
 1800 400 1800 400 1400 400 c 1
800 200 m 1
 800 0 l 1
 1000 0 l 1
 1000 200 l 1
 800 200 l 1
1000 200 m 1
 1000 0 l 1
 1200 0 l 1
 1200 200 l 1
 1000 200 l 1
400 400 m 1
 400 200 l 1
 400 200 400 200 800 200 c 1
 800 400 l 1
 800 400 800 400 400 400 c 1
0 400 m 1
 0 200 l 1
 0 200 0 200 400 200 c 1
 400 400 l 1
 400 400 400 400 0 400 c 1
1200 200 m 1
 1200 0 l 1
 1400 0 l 1
 1400 200 l 1
 1200 200 l 1
EndSplineSet
EndChar

StartChar: quotedbl
Encoding: 34 34 81
Width: 1800
VWidth: 0
Flags: HW
LayerCount: 2
Back
Fore
SplineSet
600 200 m 1
 600 0 l 1
 800 0 l 1
 800 200 l 1
 600 200 l 1
1400 200 m 1
 1400 0 l 1
 1600 0 l 1
 1600 200 l 1
 1400 200 l 1
200 400 m 1
 200 200 l 1
 333.333007812 200 466.666992188 200 600 200 c 1
 600 400 l 1
 466.666992188 400 333.333007812 400 200 400 c 1
0 200 m 1
 0 0 l 1
 200 0 l 1
 200 200 l 1
 0 200 l 1
1000 400 m 1
 1000 200 l 1
 1133.33300781 200 1266.66699219 200 1400 200 c 1
 1400 400 l 1
 1266.66699219 400 1133.33300781 400 1000 400 c 1
800 200 m 1
 800 0 l 1
 1000 0 l 1
 1000 200 l 1
 800 200 l 1
EndSplineSet
EndChar

StartChar: backslash
Encoding: 92 92 82
Width: 300
VWidth: 0
Flags: HW
LayerCount: 2
Back
Fore
SplineSet
0 400 m 1
 100 400 l 1
 100 200 100 200 100 0 c 1
 0 0 l 1
 0 200 0 200 0 400 c 1
EndSplineSet
EndChar

StartChar: numbersign
Encoding: 35 35 83
Width: 300
VWidth: 0
Flags: HW
LayerCount: 2
Back
Fore
SplineSet
200 400 m 1
 300 400 l 1
 300 200 300 200 300 0 c 1
 200 0 l 1
 200 200 200 200 200 400 c 1
EndSplineSet
EndChar

StartChar: dollar
Encoding: 36 36 84
Width: 300
VWidth: 0
Flags: HW
LayerCount: 2
Back
Fore
SplineSet
200 400 m 1
 300 400 l 1
 300 200 300 200 300 0 c 1
 200 0 l 1
 200 200 200 200 200 400 c 1
EndSplineSet
Validated: 1
EndChar

StartChar: percent
Encoding: 37 37 85
Width: 300
VWidth: 0
Flags: HW
LayerCount: 2
Back
Fore
SplineSet
200 400 m 1
 300 400 l 1
 300 200 300 200 300 0 c 1
 200 0 l 1
 200 200 200 200 200 400 c 1
EndSplineSet
Validated: 1
EndChar

StartChar: ampersand
Encoding: 38 38 86
Width: 300
VWidth: 0
Flags: HW
LayerCount: 2
Back
Fore
SplineSet
200 400 m 1
 300 400 l 1
 300 200 300 200 300 0 c 1
 200 0 l 1
 200 200 200 200 200 400 c 1
EndSplineSet
EndChar

StartChar: asterisk
Encoding: 42 42 87
Width: 300
VWidth: 0
Flags: HW
LayerCount: 2
Back
Fore
SplineSet
200 400 m 1
 300 400 l 1
 300 200 300 200 300 0 c 1
 200 0 l 1
 200 200 200 200 200 400 c 1
EndSplineSet
Validated: 1
EndChar

StartChar: less
Encoding: 60 60 88
Width: 300
VWidth: 0
Flags: HW
LayerCount: 2
Back
Fore
SplineSet
100 400 m 1
 200 400 l 1
 200 200 200 200 200 0 c 1
 100 0 l 1
 100 200 100 200 100 400 c 1
EndSplineSet
Validated: 1
EndChar

StartChar: greater
Encoding: 62 62 89
Width: 300
VWidth: 0
Flags: HW
LayerCount: 2
Back
Fore
SplineSet
100 400 m 1
 200 400 l 1
 200 200 200 200 200 0 c 1
 100 0 l 1
 100 200 100 200 100 400 c 1
EndSplineSet
Validated: 1
EndChar

StartChar: bracketleft
Encoding: 91 91 90
Width: 1800
VWidth: 0
Flags: HW
LayerCount: 2
Back
Fore
SplineSet
400 200 m 1
 400 0 l 1
 600 0 l 1
 600 200 l 1
 400 200 l 1
0 400 m 1
 0 200 l 1
 133.333007812 200 266.666992188 200 400 200 c 1
 400 400 l 1
 266.666992188 400 133.333007812 400 0 400 c 1
600 400 m 1
 600 200 l 1
 733.333007812 200 866.666992188 200 1000 200 c 1
 1000 400 l 1
 866.666992188 400 733.333007812 400 600 400 c 1
1000 400 m 1
 1000 200 l 1
 1133.33300781 200 1266.66699219 200 1400 200 c 1
 1400 400 l 1
 1266.66699219 400 1133.33300781 400 1000 400 c 1
1400 200 m 1
 1400 0 l 1
 1600 0 l 1
 1600 200 l 1
 1400 200 l 1
EndSplineSet
EndChar

StartChar: bracketright
Encoding: 93 93 91
Width: 2200
VWidth: 0
Flags: HW
LayerCount: 2
Back
Fore
SplineSet
1600 400 m 1
 1600 200 l 1
 1733.33300781 200 1866.66699219 200 2000 200 c 1
 2000 400 l 1
 1866.66699219 400 1733.33300781 400 1600 400 c 1
1400 200 m 1
 1400 0 l 1
 1600 0 l 1
 1600 200 l 1
 1400 200 l 1
1000 400 m 1
 1000 200 l 1
 1133.33300781 200 1266.66699219 200 1400 200 c 1
 1400 400 l 1
 1266.66699219 400 1133.33300781 400 1000 400 c 1
600 400 m 1
 600 200 l 1
 733.333007812 200 866.666992188 200 1000 200 c 1
 1000 400 l 1
 866.666992188 400 733.333007812 400 600 400 c 1
0 400 m 1
 0 200 l 1
 133.333007812 200 266.666992188 200 400 200 c 1
 400 400 l 1
 266.666992188 400 133.333007812 400 0 400 c 1
400 200 m 1
 400 0 l 1
 600 0 l 1
 600 200 l 1
 400 200 l 1
EndSplineSet
EndChar

StartChar: asciicircum
Encoding: 94 94 92
Width: 300
VWidth: 0
Flags: HW
LayerCount: 2
Back
Fore
SplineSet
0 400 m 1
 100 400 l 1
 100 200 100 200 100 0 c 1
 0 0 l 1
 0 200 0 200 0 400 c 1
EndSplineSet
EndChar

StartChar: grave
Encoding: 96 96 93
Width: 2200
VWidth: 0
Flags: HW
LayerCount: 2
Back
Fore
SplineSet
1000 400 m 1
 1000 200 l 1
 1133.33300781 200 1266.66699219 200 1400 200 c 1
 1400 400 l 1
 1266.66699219 400 1133.33300781 400 1000 400 c 1
600 400 m 1
 600 200 l 1
 733.333007812 200 866.666992188 200 1000 200 c 1
 1000 400 l 1
 866.666992188 400 733.333007812 400 600 400 c 1
200 400 m 1
 200 200 l 1
 333.333007812 200 466.666992188 200 600 200 c 1
 600 400 l 1
 466.666992188 400 333.333007812 400 200 400 c 1
0 200 m 1
 0 0 l 1
 200 0 l 1
 200 200 l 1
 0 200 l 1
1800 200 m 1
 1800 0 l 1
 2000 0 l 1
 2000 200 l 1
 1800 200 l 1
1400 400 m 1
 1400 200 l 1
 1533.33300781 200 1666.66699219 200 1800 200 c 1
 1800 400 l 1
 1666.66699219 400 1533.33300781 400 1400 400 c 1
EndSplineSet
EndChar

StartChar: braceleft
Encoding: 123 123 94
Width: 1800
VWidth: 0
Flags: HW
LayerCount: 2
Back
Fore
SplineSet
400 200 m 1
 400 0 l 1
 600 0 l 1
 600 200 l 1
 400 200 l 1
0 400 m 1
 0 200 l 1
 133.333007812 200 266.666992188 200 400 200 c 1
 400 400 l 1
 266.666992188 400 133.333007812 400 0 400 c 1
600 400 m 1
 600 200 l 1
 733.333007812 200 866.666992188 200 1000 200 c 1
 1000 400 l 1
 866.666992188 400 733.333007812 400 600 400 c 1
1000 400 m 1
 1000 200 l 1
 1133.33300781 200 1266.66699219 200 1400 200 c 1
 1400 400 l 1
 1266.66699219 400 1133.33300781 400 1000 400 c 1
1400 200 m 1
 1400 0 l 1
 1600 0 l 1
 1600 200 l 1
 1400 200 l 1
EndSplineSet
EndChar

StartChar: braceright
Encoding: 125 125 95
Width: 2200
VWidth: 0
Flags: HW
LayerCount: 2
Back
Fore
SplineSet
1600 400 m 1
 1600 200 l 1
 1733.33300781 200 1866.66699219 200 2000 200 c 1
 2000 400 l 1
 1866.66699219 400 1733.33300781 400 1600 400 c 1
1400 200 m 1
 1400 0 l 1
 1600 0 l 1
 1600 200 l 1
 1400 200 l 1
1000 400 m 1
 1000 200 l 1
 1133.33300781 200 1266.66699219 200 1400 200 c 1
 1400 400 l 1
 1266.66699219 400 1133.33300781 400 1000 400 c 1
600 400 m 1
 600 200 l 1
 733.333007812 200 866.666992188 200 1000 200 c 1
 1000 400 l 1
 866.666992188 400 733.333007812 400 600 400 c 1
0 400 m 1
 0 200 l 1
 133.333007812 200 266.666992188 200 400 200 c 1
 400 400 l 1
 266.666992188 400 133.333007812 400 0 400 c 1
400 200 m 1
 400 0 l 1
 600 0 l 1
 600 200 l 1
 400 200 l 1
EndSplineSet
EndChar

StartChar: asciitilde
Encoding: 126 126 96
Width: 300
VWidth: 0
Flags: HW
LayerCount: 2
Back
Fore
SplineSet
200 400 m 1
 300 400 l 1
 300 200 300 200 300 0 c 1
 200 0 l 1
 200 200 200 200 200 400 c 1
EndSplineSet
EndChar

StartChar: uni02B9
Encoding: 697 697 97
Width: 3400
VWidth: 90
Flags: HW
LayerCount: 2
Back
Fore
SplineSet
1600 400 m 5
 1600 200 l 5
 1733.33300781 200 1866.66699219 200 2000 200 c 5
 2000 400 l 5
 1866.66699219 400 1733.33300781 400 1600 400 c 5
1000 400 m 5
 1000 200 l 5
 1133.33300781 200 1266.66699219 200 1400 200 c 5
 1400 400 l 5
 1266.66699219 400 1133.33300781 400 1000 400 c 5
400 400 m 5
 400 200 l 5
 533.333007812 200 666.666992188 200 800 200 c 5
 800 400 l 5
 666.666992188 400 533.333007812 400 400 400 c 5
0 200 m 1
 0 0 l 1
 200 0 l 1
 200 200 l 1
 0 200 l 1
2800 200 m 1
 2800 0 l 1
 3000 0 l 1
 3000 200 l 1
 2800 200 l 1
2200 400 m 5
 2200 200 l 5
 2333.33300781 200 2466.66699219 200 2600 200 c 5
 2600 400 l 5
 2466.66699219 400 2333.33300781 400 2200 400 c 5
EndSplineSet
Validated: 9
EndChar

StartChar: uni02BA
Encoding: 698 698 98
Width: 3000
VWidth: 90
Flags: HW
LayerCount: 2
Back
Fore
SplineSet
1000 200 m 1
 1000 0 l 1
 1200 0 l 1
 1200 200 l 1
 1000 200 l 1
2400 200 m 1
 2400 0 l 1
 2600 0 l 1
 2600 200 l 1
 2400 200 l 1
400 400 m 5
 400 200 l 5
 533.333007812 200 666.666992188 200 800 200 c 5
 800 400 l 5
 666.666992188 400 533.333007812 400 400 400 c 5
0 200 m 1
 0 0 l 1
 200 0 l 1
 200 200 l 1
 0 200 l 1
1800 400 m 5
 1800 200 l 5
 1933.33300781 200 2066.66699219 200 2200 200 c 5
 2200 400 l 5
 2066.66699219 400 1933.33300781 400 1800 400 c 5
1400 200 m 1
 1400 0 l 1
 1600 0 l 1
 1600 200 l 1
 1400 200 l 1
EndSplineSet
Validated: 9
EndChar

StartChar: uni02BB
Encoding: 699 699 99
Width: 3400
VWidth: 90
Flags: HW
LayerCount: 2
Back
Fore
SplineSet
1600 400 m 5
 1600 200 l 5
 1733.33300781 200 1866.66699219 200 2000 200 c 5
 2000 400 l 5
 1866.66699219 400 1733.33300781 400 1600 400 c 5
1000 400 m 5
 1000 200 l 5
 1133.33300781 200 1266.66699219 200 1400 200 c 5
 1400 400 l 5
 1266.66699219 400 1133.33300781 400 1000 400 c 5
400 400 m 5
 400 200 l 5
 533.333007812 200 666.666992188 200 800 200 c 5
 800 400 l 5
 666.666992188 400 533.333007812 400 400 400 c 5
0 200 m 1
 0 0 l 1
 200 0 l 1
 200 200 l 1
 0 200 l 1
2800 200 m 1
 2800 0 l 1
 3000 0 l 1
 3000 200 l 1
 2800 200 l 1
2200 400 m 5
 2200 200 l 5
 2333.33300781 200 2466.66699219 200 2600 200 c 5
 2600 400 l 5
 2466.66699219 400 2333.33300781 400 2200 400 c 5
EndSplineSet
Validated: 9
EndChar

StartChar: uni02BC
Encoding: 700 700 100
Width: 3400
VWidth: 90
Flags: HW
LayerCount: 2
Back
Fore
SplineSet
1600 400 m 5
 1600 200 l 5
 1733.33300781 200 1866.66699219 200 2000 200 c 5
 2000 400 l 5
 1866.66699219 400 1733.33300781 400 1600 400 c 5
1000 400 m 5
 1000 200 l 5
 1133.33300781 200 1266.66699219 200 1400 200 c 5
 1400 400 l 5
 1266.66699219 400 1133.33300781 400 1000 400 c 5
400 400 m 5
 400 200 l 5
 533.333007812 200 666.666992188 200 800 200 c 5
 800 400 l 5
 666.666992188 400 533.333007812 400 400 400 c 5
0 200 m 1
 0 0 l 1
 200 0 l 1
 200 200 l 1
 0 200 l 1
2800 200 m 1
 2800 0 l 1
 3000 0 l 1
 3000 200 l 1
 2800 200 l 1
2200 400 m 5
 2200 200 l 5
 2333.33300781 200 2466.66699219 200 2600 200 c 5
 2600 400 l 5
 2466.66699219 400 2333.33300781 400 2200 400 c 5
EndSplineSet
Validated: 9
EndChar

StartChar: uni02BD
Encoding: 701 701 101
Width: 3400
VWidth: 90
Flags: HW
LayerCount: 2
Back
Fore
SplineSet
1600 400 m 5
 1600 200 l 5
 1733.33300781 200 1866.66699219 200 2000 200 c 5
 2000 400 l 5
 1866.66699219 400 1733.33300781 400 1600 400 c 5
1000 400 m 5
 1000 200 l 5
 1133.33300781 200 1266.66699219 200 1400 200 c 5
 1400 400 l 5
 1266.66699219 400 1133.33300781 400 1000 400 c 5
400 400 m 5
 400 200 l 5
 533.333007812 200 666.666992188 200 800 200 c 5
 800 400 l 5
 666.666992188 400 533.333007812 400 400 400 c 5
0 200 m 1
 0 0 l 1
 200 0 l 1
 200 200 l 1
 0 200 l 1
2800 200 m 1
 2800 0 l 1
 3000 0 l 1
 3000 200 l 1
 2800 200 l 1
2200 400 m 5
 2200 200 l 5
 2333.33300781 200 2466.66699219 200 2600 200 c 5
 2600 400 l 5
 2466.66699219 400 2333.33300781 400 2200 400 c 5
EndSplineSet
Validated: 9
EndChar

StartChar: uni02BE
Encoding: 702 702 102
Width: 3400
VWidth: 90
Flags: HW
LayerCount: 2
Back
Fore
SplineSet
1600 400 m 5
 1600 200 l 5
 1733.33300781 200 1866.66699219 200 2000 200 c 5
 2000 400 l 5
 1866.66699219 400 1733.33300781 400 1600 400 c 5
1000 400 m 5
 1000 200 l 5
 1133.33300781 200 1266.66699219 200 1400 200 c 5
 1400 400 l 5
 1266.66699219 400 1133.33300781 400 1000 400 c 5
400 400 m 5
 400 200 l 5
 533.333007812 200 666.666992188 200 800 200 c 5
 800 400 l 5
 666.666992188 400 533.333007812 400 400 400 c 5
0 200 m 1
 0 0 l 1
 200 0 l 1
 200 200 l 1
 0 200 l 1
2800 200 m 1
 2800 0 l 1
 3000 0 l 1
 3000 200 l 1
 2800 200 l 1
2200 400 m 5
 2200 200 l 5
 2333.33300781 200 2466.66699219 200 2600 200 c 5
 2600 400 l 5
 2466.66699219 400 2333.33300781 400 2200 400 c 5
EndSplineSet
Validated: 9
EndChar

StartChar: uni02BF
Encoding: 703 703 103
Width: 3400
VWidth: 90
Flags: HW
LayerCount: 2
Back
Fore
SplineSet
1600 400 m 5
 1600 200 l 5
 1733.33300781 200 1866.66699219 200 2000 200 c 5
 2000 400 l 5
 1866.66699219 400 1733.33300781 400 1600 400 c 5
1000 400 m 5
 1000 200 l 5
 1133.33300781 200 1266.66699219 200 1400 200 c 5
 1400 400 l 5
 1266.66699219 400 1133.33300781 400 1000 400 c 5
400 400 m 5
 400 200 l 5
 533.333007812 200 666.666992188 200 800 200 c 5
 800 400 l 5
 666.666992188 400 533.333007812 400 400 400 c 5
0 200 m 1
 0 0 l 1
 200 0 l 1
 200 200 l 1
 0 200 l 1
2800 200 m 1
 2800 0 l 1
 3000 0 l 1
 3000 200 l 1
 2800 200 l 1
2200 400 m 5
 2200 200 l 5
 2333.33300781 200 2466.66699219 200 2600 200 c 5
 2600 400 l 5
 2466.66699219 400 2333.33300781 400 2200 400 c 5
EndSplineSet
Validated: 9
EndChar

StartChar: uni02EE
Encoding: 750 750 104
Width: 3000
VWidth: 90
Flags: HW
LayerCount: 2
Back
Fore
SplineSet
1000 200 m 1
 1000 0 l 1
 1200 0 l 1
 1200 200 l 1
 1000 200 l 1
2400 200 m 1
 2400 0 l 1
 2600 0 l 1
 2600 200 l 1
 2400 200 l 1
400 400 m 5
 400 200 l 5
 533.333007812 200 666.666992188 200 800 200 c 5
 800 400 l 5
 666.666992188 400 533.333007812 400 400 400 c 5
0 200 m 1
 0 0 l 1
 200 0 l 1
 200 200 l 1
 0 200 l 1
1800 400 m 5
 1800 200 l 5
 1933.33300781 200 2066.66699219 200 2200 200 c 5
 2200 400 l 5
 2066.66699219 400 1933.33300781 400 1800 400 c 5
1400 200 m 1
 1400 0 l 1
 1600 0 l 1
 1600 200 l 1
 1400 200 l 1
EndSplineSet
Validated: 9
EndChar

StartChar: hungarumlaut
Encoding: 733 733 105
Width: 3000
VWidth: 90
Flags: HW
LayerCount: 2
Back
Fore
SplineSet
1000 200 m 1
 1000 0 l 1
 1200 0 l 1
 1200 200 l 1
 1000 200 l 1
2400 200 m 1
 2400 0 l 1
 2600 0 l 1
 2600 200 l 1
 2400 200 l 1
400 400 m 5
 400 200 l 5
 533.333007812 200 666.666992188 200 800 200 c 5
 800 400 l 5
 666.666992188 400 533.333007812 400 400 400 c 5
0 200 m 1
 0 0 l 1
 200 0 l 1
 200 200 l 1
 0 200 l 1
1800 400 m 5
 1800 200 l 5
 1933.33300781 200 2066.66699219 200 2200 200 c 5
 2200 400 l 5
 2066.66699219 400 1933.33300781 400 1800 400 c 5
1400 200 m 1
 1400 0 l 1
 1600 0 l 1
 1600 200 l 1
 1400 200 l 1
EndSplineSet
Validated: 9
EndChar

StartChar: uni00AD
Encoding: 173 173 106
Width: 1800
VWidth: 0
Flags: HW
LayerCount: 2
Back
Fore
SplineSet
800 200 m 1
 800 0 l 1
 1000 0 l 1
 1000 200 l 1
 800 200 l 1
600 200 m 1
 600 0 l 1
 800 0 l 1
 800 200 l 1
 600 200 l 1
400 200 m 1
 400 0 l 1
 600 0 l 1
 600 200 l 1
 400 200 l 1
0 400 m 1
 0 200 l 1
 133.333007812 200 266.666992188 200 400 200 c 1
 400 400 l 1
 266.666992188 400 133.333007812 400 0 400 c 1
1000 200 m 1
 1000 0 l 1
 1200 0 l 1
 1200 200 l 1
 1000 200 l 1
1200 400 m 1
 1200 200 l 1
 1333.33300781 200 1466.66699219 200 1600 200 c 1
 1600 400 l 1
 1466.66699219 400 1333.33300781 400 1200 400 c 1
EndSplineSet
EndChar

StartChar: brokenbar
Encoding: 166 166 107
Width: 300
VWidth: 0
Flags: HW
LayerCount: 2
Back
Fore
SplineSet
0 400 m 1
 100 400 l 1
 100 200 100 200 100 0 c 1
 0 0 l 1
 0 200 0 200 0 400 c 1
EndSplineSet
EndChar

StartChar: uni02D6
Encoding: 726 726 108
Width: 2600
VWidth: 90
Flags: HW
LayerCount: 2
Back
Fore
SplineSet
2000 200 m 1
 2000 0 l 1
 2200 0 l 1
 2200 200 l 1
 2000 200 l 1
400 400 m 5
 400 200 l 5
 533.333007812 200 666.666992188 200 800 200 c 5
 800 400 l 5
 666.666992188 400 533.333007812 400 400 400 c 5
0 200 m 1
 0 0 l 1
 200 0 l 1
 200 200 l 1
 0 200 l 1
1400 400 m 5
 1400 200 l 5
 1533.33300781 200 1666.66699219 200 1800 200 c 5
 1800 400 l 5
 1666.66699219 400 1533.33300781 400 1400 400 c 5
1000 200 m 1
 1000 0 l 1
 1200 0 l 1
 1200 200 l 1
 1000 200 l 1
EndSplineSet
Validated: 9
EndChar

StartChar: uni02D7
Encoding: 727 727 109
Width: 3000
VWidth: 90
Flags: HW
LayerCount: 2
Back
Fore
SplineSet
1400 200 m 1
 1400 0 l 1
 1600 0 l 1
 1600 200 l 1
 1400 200 l 1
1000 200 m 1
 1000 0 l 1
 1200 0 l 1
 1200 200 l 1
 1000 200 l 1
600 200 m 1
 600 0 l 1
 800 0 l 1
 800 200 l 1
 600 200 l 1
0 400 m 5
 0 200 l 5
 133.333007812 200 266.666992188 200 400 200 c 5
 400 400 l 5
 266.666992188 400 133.333007812 400 0 400 c 5
1800 200 m 1
 1800 0 l 1
 2000 0 l 1
 2000 200 l 1
 1800 200 l 1
2200 400 m 5
 2200 200 l 5
 2333.33300781 200 2466.66699219 200 2600 200 c 5
 2600 400 l 5
 2466.66699219 400 2333.33300781 400 2200 400 c 5
EndSplineSet
Validated: 9
EndChar

StartChar: figuredash
Encoding: 8210 8210 110
Width: 1800
VWidth: 0
Flags: HW
LayerCount: 2
Back
Fore
SplineSet
800 200 m 1
 800 0 l 1
 1000 0 l 1
 1000 200 l 1
 800 200 l 1
600 200 m 1
 600 0 l 1
 800 0 l 1
 800 200 l 1
 600 200 l 1
400 200 m 1
 400 0 l 1
 600 0 l 1
 600 200 l 1
 400 200 l 1
0 400 m 1
 0 200 l 1
 133.333007812 200 266.666992188 200 400 200 c 1
 400 400 l 1
 266.666992188 400 133.333007812 400 0 400 c 1
1000 200 m 1
 1000 0 l 1
 1200 0 l 1
 1200 200 l 1
 1000 200 l 1
1200 400 m 1
 1200 200 l 1
 1333.33300781 200 1466.66699219 200 1600 200 c 1
 1600 400 l 1
 1466.66699219 400 1333.33300781 400 1200 400 c 1
EndSplineSet
EndChar

StartChar: endash
Encoding: 8211 8211 111
Width: 1800
VWidth: 0
Flags: HW
LayerCount: 2
Back
Fore
SplineSet
800 200 m 1
 800 0 l 1
 1000 0 l 1
 1000 200 l 1
 800 200 l 1
600 200 m 1
 600 0 l 1
 800 0 l 1
 800 200 l 1
 600 200 l 1
400 200 m 1
 400 0 l 1
 600 0 l 1
 600 200 l 1
 400 200 l 1
0 400 m 1
 0 200 l 1
 133.333007812 200 266.666992188 200 400 200 c 1
 400 400 l 1
 266.666992188 400 133.333007812 400 0 400 c 1
1000 200 m 1
 1000 0 l 1
 1200 0 l 1
 1200 200 l 1
 1000 200 l 1
1200 400 m 1
 1200 200 l 1
 1333.33300781 200 1466.66699219 200 1600 200 c 1
 1600 400 l 1
 1466.66699219 400 1333.33300781 400 1200 400 c 1
EndSplineSet
EndChar

StartChar: quotereversed
Encoding: 8219 8219 112
Width: 2200
VWidth: 0
Flags: HW
LayerCount: 2
Back
Fore
SplineSet
1000 400 m 1
 1000 200 l 1
 1133.33300781 200 1266.66699219 200 1400 200 c 1
 1400 400 l 1
 1266.66699219 400 1133.33300781 400 1000 400 c 1
600 400 m 1
 600 200 l 1
 733.333007812 200 866.666992188 200 1000 200 c 1
 1000 400 l 1
 866.666992188 400 733.333007812 400 600 400 c 1
200 400 m 1
 200 200 l 1
 333.333007812 200 466.666992188 200 600 200 c 1
 600 400 l 1
 466.666992188 400 333.333007812 400 200 400 c 1
0 200 m 1
 0 0 l 1
 200 0 l 1
 200 200 l 1
 0 200 l 1
1800 200 m 1
 1800 0 l 1
 2000 0 l 1
 2000 200 l 1
 1800 200 l 1
1400 400 m 1
 1400 200 l 1
 1533.33300781 200 1666.66699219 200 1800 200 c 1
 1800 400 l 1
 1666.66699219 400 1533.33300781 400 1400 400 c 1
EndSplineSet
EndChar

StartChar: quotedblleft
Encoding: 8220 8220 113
Width: 1800
VWidth: 0
Flags: HW
LayerCount: 2
Back
Fore
SplineSet
600 200 m 1
 600 0 l 1
 800 0 l 1
 800 200 l 1
 600 200 l 1
1400 200 m 1
 1400 0 l 1
 1600 0 l 1
 1600 200 l 1
 1400 200 l 1
200 400 m 1
 200 200 l 1
 333.333007812 200 466.666992188 200 600 200 c 1
 600 400 l 1
 466.666992188 400 333.333007812 400 200 400 c 1
0 200 m 1
 0 0 l 1
 200 0 l 1
 200 200 l 1
 0 200 l 1
1000 400 m 1
 1000 200 l 1
 1133.33300781 200 1266.66699219 200 1400 200 c 1
 1400 400 l 1
 1266.66699219 400 1133.33300781 400 1000 400 c 1
800 200 m 1
 800 0 l 1
 1000 0 l 1
 1000 200 l 1
 800 200 l 1
EndSplineSet
EndChar

StartChar: quotedblright
Encoding: 8221 8221 114
Width: 1800
VWidth: 0
Flags: HW
LayerCount: 2
Back
Fore
SplineSet
600 200 m 1
 600 0 l 1
 800 0 l 1
 800 200 l 1
 600 200 l 1
1400 200 m 1
 1400 0 l 1
 1600 0 l 1
 1600 200 l 1
 1400 200 l 1
200 400 m 1
 200 200 l 1
 333.333007812 200 466.666992188 200 600 200 c 1
 600 400 l 1
 466.666992188 400 333.333007812 400 200 400 c 1
0 200 m 1
 0 0 l 1
 200 0 l 1
 200 200 l 1
 0 200 l 1
1000 400 m 1
 1000 200 l 1
 1133.33300781 200 1266.66699219 200 1400 200 c 1
 1400 400 l 1
 1266.66699219 400 1133.33300781 400 1000 400 c 1
800 200 m 1
 800 0 l 1
 1000 0 l 1
 1000 200 l 1
 800 200 l 1
EndSplineSet
EndChar

StartChar: quotedblbase
Encoding: 8222 8222 115
Width: 1800
VWidth: 0
Flags: HW
LayerCount: 2
Back
Fore
SplineSet
600 200 m 1
 600 0 l 1
 800 0 l 1
 800 200 l 1
 600 200 l 1
1400 200 m 1
 1400 0 l 1
 1600 0 l 1
 1600 200 l 1
 1400 200 l 1
200 400 m 1
 200 200 l 1
 333.333007812 200 466.666992188 200 600 200 c 1
 600 400 l 1
 466.666992188 400 333.333007812 400 200 400 c 1
0 200 m 1
 0 0 l 1
 200 0 l 1
 200 200 l 1
 0 200 l 1
1000 400 m 1
 1000 200 l 1
 1133.33300781 200 1266.66699219 200 1400 200 c 1
 1400 400 l 1
 1266.66699219 400 1133.33300781 400 1000 400 c 1
800 200 m 1
 800 0 l 1
 1000 0 l 1
 1000 200 l 1
 800 200 l 1
EndSplineSet
EndChar

StartChar: uni201F
Encoding: 8223 8223 116
Width: 1800
VWidth: 0
Flags: HW
LayerCount: 2
Back
Fore
SplineSet
600 200 m 1
 600 0 l 1
 800 0 l 1
 800 200 l 1
 600 200 l 1
1400 200 m 1
 1400 0 l 1
 1600 0 l 1
 1600 200 l 1
 1400 200 l 1
200 400 m 1
 200 200 l 1
 333.333007812 200 466.666992188 200 600 200 c 1
 600 400 l 1
 466.666992188 400 333.333007812 400 200 400 c 1
0 200 m 1
 0 0 l 1
 200 0 l 1
 200 200 l 1
 0 200 l 1
1000 400 m 1
 1000 200 l 1
 1133.33300781 200 1266.66699219 200 1400 200 c 1
 1400 400 l 1
 1266.66699219 400 1133.33300781 400 1000 400 c 1
800 200 m 1
 800 0 l 1
 1000 0 l 1
 1000 200 l 1
 800 200 l 1
EndSplineSet
EndChar

StartChar: quoteleft
Encoding: 8216 8216 117
Width: 2200
VWidth: 0
Flags: HW
LayerCount: 2
Back
Fore
SplineSet
1000 400 m 1
 1000 200 l 1
 1133.33300781 200 1266.66699219 200 1400 200 c 1
 1400 400 l 1
 1266.66699219 400 1133.33300781 400 1000 400 c 1
600 400 m 1
 600 200 l 1
 733.333007812 200 866.666992188 200 1000 200 c 1
 1000 400 l 1
 866.666992188 400 733.333007812 400 600 400 c 1
200 400 m 1
 200 200 l 1
 333.333007812 200 466.666992188 200 600 200 c 1
 600 400 l 1
 466.666992188 400 333.333007812 400 200 400 c 1
0 200 m 1
 0 0 l 1
 200 0 l 1
 200 200 l 1
 0 200 l 1
1800 200 m 1
 1800 0 l 1
 2000 0 l 1
 2000 200 l 1
 1800 200 l 1
1400 400 m 1
 1400 200 l 1
 1533.33300781 200 1666.66699219 200 1800 200 c 1
 1800 400 l 1
 1666.66699219 400 1533.33300781 400 1400 400 c 1
EndSplineSet
EndChar

StartChar: quoteright
Encoding: 8217 8217 118
Width: 2200
VWidth: 0
Flags: HW
LayerCount: 2
Back
Fore
SplineSet
1000 400 m 1
 1000 200 l 1
 1133.33300781 200 1266.66699219 200 1400 200 c 1
 1400 400 l 1
 1266.66699219 400 1133.33300781 400 1000 400 c 1
600 400 m 1
 600 200 l 1
 733.333007812 200 866.666992188 200 1000 200 c 1
 1000 400 l 1
 866.666992188 400 733.333007812 400 600 400 c 1
200 400 m 1
 200 200 l 1
 333.333007812 200 466.666992188 200 600 200 c 1
 600 400 l 1
 466.666992188 400 333.333007812 400 200 400 c 1
0 200 m 1
 0 0 l 1
 200 0 l 1
 200 200 l 1
 0 200 l 1
1800 200 m 1
 1800 0 l 1
 2000 0 l 1
 2000 200 l 1
 1800 200 l 1
1400 400 m 1
 1400 200 l 1
 1533.33300781 200 1666.66699219 200 1800 200 c 1
 1800 400 l 1
 1666.66699219 400 1533.33300781 400 1400 400 c 1
EndSplineSet
EndChar

StartChar: quotesinglbase
Encoding: 8218 8218 119
Width: 2200
VWidth: 0
Flags: HW
LayerCount: 2
Back
Fore
SplineSet
1000 400 m 1
 1000 200 l 1
 1133.33300781 200 1266.66699219 200 1400 200 c 1
 1400 400 l 1
 1266.66699219 400 1133.33300781 400 1000 400 c 1
600 400 m 1
 600 200 l 1
 733.333007812 200 866.666992188 200 1000 200 c 1
 1000 400 l 1
 866.666992188 400 733.333007812 400 600 400 c 1
200 400 m 1
 200 200 l 1
 333.333007812 200 466.666992188 200 600 200 c 1
 600 400 l 1
 466.666992188 400 333.333007812 400 200 400 c 1
0 200 m 1
 0 0 l 1
 200 0 l 1
 200 200 l 1
 0 200 l 1
1800 200 m 1
 1800 0 l 1
 2000 0 l 1
 2000 200 l 1
 1800 200 l 1
1400 400 m 1
 1400 200 l 1
 1533.33300781 200 1666.66699219 200 1800 200 c 1
 1800 400 l 1
 1666.66699219 400 1533.33300781 400 1400 400 c 1
EndSplineSet
EndChar
